<?xml version="1.0" encoding="utf-8"?>
<!-- Generator: Adobe Illustrator 21.1.0, SVG Export Plug-In . SVG Version: 6.00 Build 0)  -->
<svg version="1.1" id="Layer_1" xmlns="http://www.w3.org/2000/svg" xmlns:xlink="http://www.w3.org/1999/xlink" x="0px" y="0px"
	 viewBox="0 0 80 40" style="enable-background:new 0 0 80 40;" xml:space="preserve">
<style type="text/css">
	.st0{fill:#467366;}
</style>
<path class="st0" d="M25.3,20.7c-6.7-1.8-14.2-0.1-19.4,5.2C2,29.8,0,34.9,0,40h2c0-4.6,1.8-9.2,5.3-12.7c0.5-0.5,1-0.9,1.5-1.3v9.8
	L4.5,40h2.8l16.5-16.4c0.7,5.4-1,11-5.2,15.1c-0.5,0.5-1,0.9-1.5,1.3h3C25.4,34.7,27.1,27.3,25.3,20.7z M10.8,33.7v-9.2
	c3.5-2.1,7.6-2.9,11.6-2.4L10.8,33.7z"/>
<path class="st0" d="M65.3,0.7C58.6-1,51.2,0.7,45.9,5.9c-5.2,5.2-7,12.6-5.2,19.3c6.7,1.8,14.1,0.1,19.3-5.2
	C65.3,14.8,67,7.4,65.3,0.7z M50.8,4.6c3.5-2.1,7.6-2.9,11.6-2.4L50.8,13.8V4.6z M47.3,7.3c0.5-0.5,1-0.9,1.5-1.3v9.7l-6.6,6.6
	C41.5,17,43.2,11.4,47.3,7.3z M58.7,18.7c-4.1,4.1-9.7,5.8-15,5.1L63.8,3.6C64.5,9,62.8,14.6,58.7,18.7z"/>
<path class="st0" d="M17.2,0C13.3,3.1,8.3,4.4,3.6,3.8L7.4,0H4.6L2.2,2.4C2.1,1.6,2.1,0.8,2.1,0h-2c0,1.8,0.2,3.5,0.7,5.3
	C7.4,7,14.8,5.3,20.1,0.1c0,0,0,0,0.1-0.1H17.2z"/>
</svg>
